<?xml version="1.0" standalone="no"?>
<!DOCTYPE svg PUBLIC "-//W3C//DTD SVG 20010904//EN"
 "http://www.w3.org/TR/2001/REC-SVG-20010904/DTD/svg10.dtd">
<svg version="1.0" xmlns="http://www.w3.org/2000/svg"
 width="1024.000000pt" height="1024.000000pt" viewBox="0 0 1024.000000 1024.000000"
 preserveAspectRatio="xMidYMid meet">
<metadata>
Created by potrace 1.11, written by Peter Selinger 2001-2013
</metadata>
<g transform="translate(0.000000,1024.000000) scale(0.100000,-0.100000)"
fill="#000000" stroke="none">
<path d="M3761 9542 c-74 -257 -161 -558 -194 -670 l-60 -203 -31 6 c-17 4
-308 76 -646 160 -723 179 -858 211 -867 201 -4 -3 3 -37 14 -74 12 -37 67
-211 123 -387 188 -592 254 -805 249 -810 -6 -5 -46 -11 -124 -20 -27 -3 -86
-10 -130 -15 -44 -6 -96 -13 -115 -15 -19 -3 -129 -16 -245 -30 -115 -14 -224
-27 -241 -30 -17 -2 -89 -12 -160 -20 -71 -9 -140 -18 -154 -20 -14 -2 -50 -7
-80 -10 -48 -5 -202 -24 -325 -41 -22 -3 -41 -7 -43 -8 -2 -3 141 -235 501
-809 130 -208 237 -383 237 -390 0 -7 -227 -118 -507 -247 -280 -128 -544
-250 -588 -271 -44 -21 -113 -52 -152 -71 -40 -18 -73 -36 -73 -40 0 -3 138
-111 306 -240 454 -346 758 -579 768 -589 10 -9 -27 -54 -155 -195 -41 -44
-110 -120 -154 -169 -44 -48 -84 -93 -90 -99 -20 -22 -210 -231 -220 -242 -5
-6 -44 -49 -86 -95 -102 -113 -166 -185 -216 -244 -42 -49 -43 -50 -20 -58 25
-9 372 -94 922 -226 350 -83 370 -89 367 -109 -4 -27 -105 -258 -301 -690 -83
-183 -160 -354 -172 -380 -11 -26 -26 -60 -34 -77 -56 -126 -68 -165 -52 -166
22 -2 105 7 237 26 52 8 115 17 140 20 25 3 86 12 135 20 50 7 113 16 140 20
28 3 93 12 145 20 52 8 111 16 130 19 19 3 101 14 182 26 193 28 270 31 273 9
2 -9 6 -59 9 -110 13 -176 15 -204 20 -284 6 -78 10 -150 21 -325 8 -127 23
-361 30 -455 2 -27 6 -90 10 -140 7 -109 15 -178 20 -184 3 -2 55 22 117 54
104 53 160 82 323 170 579 313 796 427 800 423 8 -9 100 -179 280 -523 442
-841 402 -770 418 -752 42 43 227 264 406 482 184 225 401 483 420 499 22 20
22 20 45 -5 13 -13 127 -150 252 -304 409 -501 529 -644 539 -644 6 0 37 59
70 132 32 73 76 168 96 212 21 44 67 148 104 230 82 185 87 194 197 435 50
107 99 216 110 242 11 27 26 48 33 48 11 0 325 -156 410 -205 22 -12 108 -57
190 -100 83 -43 155 -81 160 -85 6 -4 78 -42 160 -85 83 -43 170 -89 194 -102
24 -13 47 -21 51 -16 4 4 11 71 14 148 4 77 9 176 11 220 8 144 14 268 20 385
3 63 7 144 10 180 2 36 7 130 11 210 4 80 8 152 10 160 1 8 3 37 3 64 l1 48
93 -6 c50 -4 110 -9 132 -11 99 -10 155 -15 225 -20 41 -4 89 -8 105 -10 17
-2 66 -7 110 -10 44 -4 89 -8 101 -10 11 -2 65 -6 120 -10 54 -4 107 -9 117
-11 10 -2 62 -6 115 -9 53 -4 103 -8 110 -11 23 -7 31 5 22 34 -4 15 -81 227
-170 472 -172 474 -270 750 -270 762 0 11 94 38 600 173 256 68 472 126 480
128 8 3 27 8 43 11 15 4 27 10 27 15 0 8 -82 115 -100 131 -3 3 -25 30 -50 60
-25 30 -47 57 -50 60 -3 3 -109 129 -236 280 -126 151 -235 282 -243 290 -29
29 -171 211 -182 231 -8 17 -8 24 3 34 7 7 193 140 413 296 530 375 638 454
642 466 5 13 -116 83 -747 439 -294 166 -534 306 -533 311 1 4 161 261 357
571 196 309 356 564 356 566 0 6 -43 12 -245 36 -49 6 -103 13 -120 15 -16 3
-88 12 -160 20 -71 9 -146 18 -165 21 -75 10 -107 14 -150 19 -221 25 -721 94
-732 101 -15 10 -6 146 27 419 8 69 25 218 31 270 3 28 7 68 10 90 17 154 55
479 59 520 3 28 8 60 10 73 3 12 2 22 -2 22 -5 0 -316 -103 -693 -229 -377
-125 -718 -237 -758 -247 -72 -18 -74 -18 -88 0 -14 19 -68 178 -148 436 -25
80 -91 291 -147 470 -55 179 -106 341 -111 360 -6 19 -12 39 -15 43 -4 7 -73
-48 -183 -149 -25 -22 -126 -114 -225 -204 -99 -90 -227 -206 -284 -259 -57
-53 -109 -100 -115 -106 -12 -10 -49 -44 -216 -197 -52 -47 -108 -96 -123
-108 l-29 -23 -71 71 c-40 39 -124 122 -188 184 -104 101 -531 519 -744 729
l-80 79 -134 -468z"/>
</g>
</svg>
